# xmcd
#
# Track frame offsets:
#  150
#  14584
#  26952
#  42172
#  55091
#  66958
#  82517
#  93672
#  110471
#  124424
#  136045
#  145410
#  155707
#  167989
#  180561
#  192255
#  209780
#  223140
#  235488
#  250195
#  267334
#  281279
#  294191
#  306620
#  320083
#
# Disc length: 4443 seconds
#
# Revision: 0
# Processed by: cddbd v1.5.1PL0 Copyright (c) Steve Scherf et al.
# Submitted via: AltoMP3_Maker 3.0
#
DISCID=87115919
DTITLE=Various Artist - A Touch Country of Country - CD 3
DYEAR=1900
DGENRE=
TTITLE0=Bellamy Brothers, the - If I siad you had a beautiful body would you hold it against me
TTITLE1=Posey, Sany - Single girl
TTITLE2=Dr. Hook feat. Sawyer, Ray - A little bit more
TTITLE3=Parton, Stella - When the fire went out
TTITLE4=Miller, Roger - Walkin'in the sunshine
TTITLE5=Gayle, Crystal - When I dream
TTITLE6=Whitman, Slim - Wayward wind
TTITLE7=Price, Ray - Best thing ever happened to me
TTITLE8=Young, Faron - Four in the morning
TTITLE9=Cline, Patsy - Walkin' after midnight
TTITLE10=Boone, Pat - A wonderful time up there
TTITLE11=Spears, Billy Jo - I'm gonna be a country girl again
TTITLE12=Wagoner, Porter - Satisfied mind
TTITLE13=Orlando, Tony and Dawn - Say, has anybody seen my sweet gypsy rose
TTITLE14=Rogers, Kenny - Me and Bobby McGee
TTITLE15=Warmer, Randy van - Just when I needed you most
TTITLE16=Thomas, BJ - I just can't help believing
TTITLE17=Haggard, Merle - Okie from Muskogee
TTITLE18=Lynn, Loretta - Coal miner's daughter
TTITLE19=Davies, Gail - Not a day goed by
TTITLE20=Gatlin Bothers - Houston means I'm one day closer to you
TTITLE21=Thompson, Hank - Wild side of life
TTITLE22=Kendalls, the - Pick me up on you way down
TTITLE23=Saels, Dan - I'd really love to see you tonight
TTITLE24=Rich, Charlie , The most beautiful girl
EXTD=
EXTT0=
EXTT1=
EXTT2=
EXTT3=
EXTT4=
EXTT5=
EXTT6=
EXTT7=
EXTT8=
EXTT9=
EXTT10=
EXTT11=
EXTT12=
EXTT13=
EXTT14=
EXTT15=
EXTT16=
EXTT17=
EXTT18=
EXTT19=
EXTT20=
EXTT21=
EXTT22=
EXTT23=
EXTT24=
PLAYORDER=
